#!OML:ASF H:\Terrain\Patient Classification 1\Walking\liu\liu.ASF
:FULLY-SPECIFIED
:DEGREES
49
root 8.25544 16.0227 -31.3729 6.89905 -5.59312 1.5361
lowerback -2.79329 1.13374 -4.37255
upperback -0.0422326 1.62934 1.57675
thorax 1.35539 0.782007 4.14223
lowerneck -22.5481 -4.73488 -12.5726
upperneck 21.4218 -5.5531 12.4103
head 11.4327 -2.03166 5.81855
rclavicle -3.37934e-015 -2.18663e-014
rhumerus -31.2887 18.0146 -86.632
rradius 42.7874
rwrist -20.6362
rhand -31.9636 -26.2226
rfingers 7.12502
rthumb -5.21356 -56.1385
lclavicle -3.37934e-015 -2.18663e-014
lhumerus -48.9166 -0.296776 84.6659
lradius 20.76
lwrist -4.09579
lhand -10.5402 -23.1371
lfingers 7.12502
lthumb 15.4634 6.26439
rfemur -2.60664 -2.87087 16.6558
rtibia 53.7927
rfoot 16.6025 -1.92278
rtoes -7.982
lfemur -33.135 4.4166 -26.9455
ltibia 32.6678
lfoot -6.15135 3.46483
ltoes 1.81076
50
root 8.27335 16.0573 -31.194 6.70415 -5.66113 1.81128
lowerback -2.76391 1.09691 -4.53152
upperback 0.187459 1.58907 1.44735
thorax 1.5793 0.750456 4.09946
lowerneck -22.7957 -4.7447 -12.7061
upperneck 21.2918 -5.53818 12.6343
head 11.4415 -2.00115 5.92783
rclavicle -2.13694e-015 -4.37326e-015
rhumerus -31.199 17.2194 -86.6081
rradius 42.3347
rwrist -20.3055
rhand -31.5756 -25.476
rfingers 7.12502
rthumb -4.83895 -55.4008
lclavicle -2.13694e-015 -4.37326e-015
lhumerus -47.7143 -0.488088 84.6743
lradius 20.7737
lwrist -4.12576
lhand -10.4099 -23.3225
lfingers 7.12502
lthumb 15.5889 6.06928
rfemur -4.30513 -2.96375 16.3963
rtibia 56.653
rfoot 16.5373 -4.64939
rtoes -6.33517
lfemur -32.0051 4.43999 -27.3087
ltibia 32.2946
lfoot -6.67434 3.44584
ltoes 2.33992
51
root 8.28707 16.0863 -31.0196 6.62925 -5.65671 1.83796
lowerback -2.77441 0.946238 -4.53993
upperback 0.287214 1.38964 1.47718
thorax 1.70794 0.645048 4.12985
lowerneck -23.045 -4.53428 -12.2815
upperneck 21.5306 -5.33887 12.4717
head 11.5296 -1.88812 5.83672
rclavicle 8.64713e-015 7.95139e-015
rhumerus -31.718 16.9664 -86.6521
rradius 42.2155
rwrist -20.151
rhand -31.2636 -25.3536
rfingers 7.12502
rthumb -4.53765 -55.285
lclavicle 8.64713e-015 7.95139e-015
lhumerus -46.8083 -0.48448 84.7374
lradius 20.8185
lwrist -4.13506
lhand -10.5231 -23.4253
lfingers 7.12502
lthumb 15.4798 5.97493
rfemur -5.97318 -3.14646 16.4791
rtibia 59.1705
rfoot 15.7694 -6.98456
rtoes -3.76268
lfemur -31.1021 4.483 -27.4055
ltibia 32.0812
lfoot -7.52042 3.37188
ltoes 2.28514
52
root 8.30125 16.113 -30.8462 6.69187 -5.67962 1.68843
lowerback -2.87112 0.852769 -4.28506
upperback 0.302462 1.26016 1.49142
thorax 1.7964 0.580063 3.99803
lowerneck -22.1235 -4.7781 -11.6671
upperneck 20.341 -5.50687 10.9745
head 10.865 -2.11616 5.07275
rclavicle -1.26725e-014 -7.15625e-015
rhumerus -32.2606 16.4353 -86.7589
rradius 41.8506
rwrist -19.9076
rhand -30.78 -25.0589
rfingers 7.12502
rthumb -4.07069 -54.9998
lclavicle -1.26725e-014 -7.15625e-015
lhumerus -45.8633 -0.488769 84.6848
lradius 20.6941
lwrist -4.47859
lhand -10.7522 -23.6475
lfingers 7.12502
lthumb 15.2592 5.76963
rfemur -7.63397 -3.29756 16.7835
rtibia 61.3096
rfoot 13.9707 -9.18901
rtoes 0.316473
lfemur -30.3967 4.64415 -27.3395
ltibia 31.9882
lfoot -8.60001 3.23568
ltoes 1.47974
53
root 8.31684 16.1339 -30.672 6.79824 -5.71945 1.42958
lowerback -3.06673 0.777176 -3.87989
upperback 0.30648 1.15127 1.53797
thorax 1.92791 0.526216 3.81696
lowerneck -23.2234 -4.43464 -12.1006
upperneck 21.6835 -5.17675 12.1874
head 11.5818 -1.82981 5.72921
rclavicle -8.34896e-015 -1.31198e-014
rhumerus -32.7372 15.9325 -86.8458
rradius 41.3359
rwrist -19.7422
rhand -30.0919 -23.7329
rfingers 7.12502
rthumb -3.40624 -53.6854
lclavicle -8.34896e-015 -1.31198e-014
lhumerus -44.7497 -0.40327 84.5797
lradius 20.3859
lwrist -4.92601
lhand -10.7944 -23.9615
lfingers 7.12502
lthumb 15.2185 5.45881
rfemur -9.20249 -3.43064 17.2465
rtibia 63.1214
rfoot 11.7708 -10.7643
rtoes 3.05748
lfemur -29.7192 4.79831 -27.1447
ltibia 31.8483
lfoot -9.53521 3.10065
ltoes 1.59991
54
root 8.33043 16.158 -30.5 6.87149 -5.6544 1.16877
lowerback -3.15054 0.684261 -3.61402
upperback 0.283494 1.01661 1.7015
thorax 1.96548 0.460451 3.83168
lowerneck -22.9256 -4.54134 -12.7266
upperneck 21.509 -5.17534 12.3831
head 11.4836 -1.86706 5.90499
rclavicle 1.41137e-014 -1.19271e-015
rhumerus -33.1355 15.8758 -86.8187
rradius 40.7894
rwrist -19.7729
rhand -30.1185 -23.1345
rfingers 7.12502
rthumb -3.43187 -53.0866
lclavicle 1.41137e-014 -1.19271e-015
lhumerus -43.7039 -0.387012 84.7212
lradius 20.1916
lwrist -5.22035
lhand -11.0362 -24.1152
lfingers 7.12502
lthumb 14.9856 5.32255
rfemur -10.7744 -3.60342 17.7543
rtibia 64.727
rfoot 10.4176 -10.891
rtoes 2.43641
lfemur -28.8916 4.66702 -26.8604
ltibia 31.4897
lfoot -10.1042 3.05071
ltoes 3.07135
55
root 8.34445 16.2018 -30.3295 6.89634 -5.39939 1.0014
lowerback -3.0273 0.517039 -3.5057
upperback 0.243084 0.782189 1.85891
thorax 1.87564 0.346329 3.92091
lowerneck -22.7501 -4.51739 -12.6781
upperneck 21.336 -5.10421 12.1579
head 11.3652 -1.86218 5.8112
rclavicle 6.06293e-015 -1.03368e-014
rhumerus -33.5991 15.5833 -86.7708
rradius 40.3688
rwrist -19.4326
rhand -30.4363 -23.4809
rfingers 7.12502
rthumb -3.73882 -53.4279
lclavicle 6.06293e-015 -1.03368e-014
lhumerus -42.6653 -0.287917 84.8113
lradius 20.0498
lwrist -5.46542
lhand -11.2552 -24.1867
lfingers 7.12502
lthumb 14.7746 5.26668
rfemur -12.4698 -3.82403 18.1604
rtibia 66.1781
rfoot 9.17324 -10.8279
rtoes 1.8406
lfemur -27.8729 4.33117 -26.6555
ltibia 30.9033
lfoot -10.394 3.05854
ltoes 3.02389
56
root 8.35903 16.2408 -30.1637 6.97474 -5.23504 1.11528
lowerback -3.08774 0.338123 -3.58376
upperback 0.284659 0.548934 1.82786
thorax 1.97395 0.226092 3.92369
lowerneck -22.8327 -4.35733 -11.9604
upperneck 21.3104 -4.95788 11.5531
head 11.3097 -1.80613 5.47559
rclavicle 9.93923e-015 -3.97569e-016
rhumerus -33.9896 14.9116 -86.8202
rradius 39.895
rwrist -18.7069
rhand -30.6224 -23.2999
rfingers 7.12502
rthumb -3.91854 -53.2436
lclavicle 9.93923e-015 -3.97569e-016
lhumerus -41.4382 -0.354907 84.7919
lradius 19.9912
lwrist -5.4552
lhand -11.3058 -23.891
lfingers 7.12502
lthumb 14.7259 5.56591
rfemur -14.2773 -3.98228 18.2298
rtibia 67.4465
rfoot 7.35438 -11.3025
rtoes 1.53028
lfemur -26.8776 4.09233 -26.7965
ltibia 30.1895
lfoot -10.4977 3.05026
ltoes 2.49673
57
root 8.37264 16.2647 -29.9938 6.93319 -5.19356 1.29603
lowerback -3.25746 0.286771 -3.59885
upperback 0.431813 0.490229 1.68493
thorax 2.22761 0.189133 3.78414
lowerneck -23.1905 -4.15931 -11.6564
upperneck 21.6608 -4.81857 11.7144
head 11.4863 -1.68916 5.5267
rclavicle -8.24956e-015 -1.98785e-014
rhumerus -34.2928 14.2357 -86.8701
rradius 39.3962
rwrist -18.1673
rhand -30.7083 -23.0305
rfingers 7.12502
rthumb -4.00147 -52.9727
lclavicle -8.24956e-015 -1.98785e-014
lhumerus -40.0136 -0.595962 84.7288
lradius 19.8178
lwrist -6.00178
lhand -12.2914 -24.3509
lfingers 7.12502
lthumb 13.7762 5.17302
rfemur -15.7741 -3.9798 18.2432
rtibia 68.3838
rfoot 5.83094 -11.6681
rtoes -0.604223
lfemur -25.7326 4.05624 -27.0325
ltibia 29.4489
lfoot -10.4257 2.92783
ltoes 2.86832
58
root 8.38667 16.2955 -29.815 6.76635 -5.05421 1.1297
lowerback -3.19953 0.268066 -3.25053
upperback 0.452046 0.449451 1.6911
thorax 2.22179 0.17288 3.59108
lowerneck -23.5503 -4.10412 -11.7639
upperneck 22.3374 -4.81492 12.0653
head 11.826 -1.64662 5.7176
rclavicle -6.80837e-015 3.97569e-015
rhumerus -34.9039 13.7679 -86.8816
rradius 39.0208
rwrist -17.9402
rhand -30.857 -23.5597
rfingers 7.12502
rthumb -4.1451 -53.4991
lclavicle -6.80837e-015 3.97569e-015
lhumerus -38.8279 -0.77588 84.7281
lradius 19.5553
lwrist -7.02919
lhand -13.6845 -26.553
lfingers 7.12502
lthumb 12.4333 3.05719
rfemur -16.9215 -3.87169 18.6462
rtibia 68.9537
rfoot 4.44874 -11.7386
rtoes -4.10698
lfemur -24.4105 4.15403 -26.9258
ltibia 28.6914
lfoot -10.5727 2.77409
ltoes 1.78475
